<?xml version="1.0" standalone="no"?>
<!DOCTYPE svg PUBLIC "-//W3C//DTD SVG 20010904//EN"
 "http://www.w3.org/TR/2001/REC-SVG-20010904/DTD/svg10.dtd">
<svg version="1.0" xmlns="http://www.w3.org/2000/svg"
 width="1000.000000pt" height="1000.000000pt" viewBox="0 0 1000.000000 1000.000000"
 preserveAspectRatio="xMidYMid meet">

<g transform="translate(0.000000,1000.000000) scale(0.100000,-0.100000)"
fill="#FFFFFF" stroke="none">
<path d="M4835 9993 c-615 -32 -1071 -121 -1570 -308 -489 -183 -840 -375
-1270 -695 -678 -503 -1254 -1239 -1596 -2036 -266 -622 -417 -1396 -395
-2019 28 -766 140 -1287 421 -1945 190 -446 450 -857 797 -1260 455 -528 931
-894 1578 -1214 569 -282 1083 -430 1710 -493 266 -27 753 -24 1000 5 660 80
1065 192 1629 452 261 120 540 288 841 507 617 448 1142 1077 1503 1799 450
900 608 1904 461 2939 -74 523 -217 982 -464 1492 -220 454 -567 937 -943
1315 -473 474 -1069 865 -1707 1120 -614 245 -1366 374 -1995 341z m415 -763
c769 -47 1506 -297 2140 -728 244 -165 431 -324 660 -558 665 -681 1077 -1564
1174 -2514 17 -167 30 -387 23 -380 -3 3 -43 79 -89 170 -369 721 -903 1316
-1593 1774 -191 127 -274 175 -455 266 -1201 602 -2599 660 -3862 161 -368
-146 -706 -337 -1037 -586 -596 -449 -1032 -966 -1364 -1615 l-89 -175 6 165
c25 752 300 1558 753 2207 419 602 1030 1117 1676 1415 541 248 1019 364 1637
397 225 12 239 12 420 1z m-490 -2145 l0 -425 -125 0 -124 0 61 -107 c33 -60
127 -218 208 -353 81 -135 161 -270 178 -301 l32 -56 -90 -12 c-245 -31 -441
-143 -579 -330 -111 -151 -171 -326 -171 -502 0 -141 15 -205 97 -406 4 -10
-92 -13 -462 -13 -441 0 -467 -1 -460 -17 3 -10 33 -64 66 -120 32 -56 59
-105 59 -110 0 -6 -699 -401 -728 -411 -10 -3 -84 172 -127 298 -41 122 -79
284 -102 430 -22 143 -24 528 -5 665 69 479 258 918 552 1281 82 101 263 282
364 364 269 217 641 406 956 484 124 31 309 64 363 65 l37 1 0 -425z m643 405
c427 -73 801 -231 1127 -474 121 -90 330 -293 430 -418 313 -388 506 -848 559
-1330 27 -239 8 -568 -45 -808 -42 -190 -165 -535 -190 -535 -12 0 -733 398
-733 405 -1 3 28 55 64 115 35 61 65 116 65 123 0 9 -100 12 -465 12 -256 0
-465 2 -465 4 0 2 14 34 31 71 52 116 71 205 71 340 0 181 -47 330 -150 482
-53 78 -175 192 -258 241 -86 51 -223 97 -334 112 -47 6 -86 13 -88 15 -6 6
27 64 213 375 238 399 257 432 251 438 -3 2 -59 4 -126 3 l-120 -1 0 425 0
425 21 0 c12 0 76 -9 142 -20z m-4586 -2672 c132 -273 337 -597 526 -833 420
-523 976 -979 1542 -1263 256 -128 679 -283 970 -356 974 -243 1948 -178 2885
191 569 224 1062 544 1514 983 384 373 683 780 928 1267 35 68 64 119 66 113
7 -21 -19 -356 -39 -500 -96 -686 -361 -1359 -744 -1885 -550 -756 -1259
-1276 -2141 -1571 -1220 -408 -2601 -221 -3676 498 -517 345 -962 813 -1291
1355 -345 569 -564 1283 -592 1933 -3 74 -8 147 -10 163 -3 15 -3 27 -1 27 2
0 31 -55 63 -122z m3573 -402 c169 -178 360 -258 615 -258 152 -1 240 19 370
82 116 56 207 129 284 226 30 38 58 73 62 77 8 10 52 -59 204 -323 201 -349
275 -463 291 -449 7 6 37 51 65 100 27 49 54 91 59 94 5 3 130 -62 277 -146
148 -83 312 -176 365 -206 l97 -55 -41 -57 c-314 -431 -819 -782 -1338 -930
-436 -124 -915 -128 -1356 -11 -412 110 -820 347 -1135 660 -94 94 -279 313
-279 331 0 4 17 17 38 29 102 62 685 390 691 390 4 0 27 -35 51 -77 55 -98 79
-133 90 -133 5 0 21 21 36 48 21 35 272 464 432 736 2 4 16 -7 30 -25 15 -19
56 -65 92 -103z"/>
</g>
</svg>
