<?xml version="1.0" standalone="no"?>
<!DOCTYPE svg PUBLIC "-//W3C//DTD SVG 20010904//EN"
 "http://www.w3.org/TR/2001/REC-SVG-20010904/DTD/svg10.dtd">
<svg version="1.0" xmlns="http://www.w3.org/2000/svg"
 width="240.000000pt" height="240.000000pt" viewBox="0 0 240.000000 240.000000"
 preserveAspectRatio="xMidYMid meet">

<g transform="translate(0.000000,240.000000) scale(0.100000,-0.100000)"
fill="#FFFFFF" stroke="none">
<path d="M1036 2389 c-244 -36 -484 -152 -663 -322 -86 -82 -122 -135 -44 -65
121 109 277 192 440 235 141 37 338 43 479 14 413 -85 720 -380 834 -798 32
-120 37 -340 9 -456 -70 -295 -269 -529 -545 -643 -97 -40 -79 -44 36 -8 278
87 501 276 627 530 167 340 143 724 -68 1044 -53 81 -182 211 -267 270 -236
163 -559 240 -838 199z"/>
<path d="M865 2225 c-394 -74 -701 -344 -818 -720 -58 -187 -61 -389 -8 -598
93 -368 356 -671 707 -815 81 -34 230 -75 247 -69 7 2 -4 7 -22 12 -19 4 -71
23 -114 41 -303 130 -538 408 -620 734 -32 127 -31 379 2 505 81 309 285 567
554 700 138 68 209 86 368 92 245 10 424 -48 619 -200 l65 -50 -60 62 c-131
137 -305 239 -490 287 -127 33 -312 41 -430 19z"/>
<path d="M1440 2042 c0 -4 16 -18 36 -31 20 -14 66 -58 103 -98 70 -75 81 -84
81 -58 0 24 16 18 77 -33 94 -79 182 -205 228 -326 14 -36 25 -69 25 -71 0 -3
-234 -5 -520 -5 -286 0 -520 -3 -520 -8 0 -4 7 -18 16 -30 l15 -22 541 0 541
0 -7 41 c-11 69 -64 194 -117 274 -83 127 -183 222 -309 293 -64 36 -190 85
-190 74z"/>
<path d="M564 1807 c-151 -161 -229 -344 -241 -562 -6 -110 10 -260 27 -250 4
3 11 28 14 57 4 29 19 90 35 136 l27 82 -23 0 c-13 0 -23 4 -23 9 0 29 33 158
55 217 40 106 160 285 182 271 5 -3 123 -204 263 -446 140 -243 257 -441 261
-441 4 0 12 13 18 28 11 27 -2 52 -256 495 -147 256 -271 466 -274 467 -4 0
-33 -28 -65 -63z"/>
<path d="M2325 1590 c33 -170 31 -380 -5 -515 -65 -239 -205 -449 -399 -596
-90 -67 -247 -143 -361 -175 -114 -31 -323 -43 -436 -25 -367 57 -639 262
-771 581 -51 121 -66 221 -60 379 3 75 8 147 11 161 l7 25 -11 -25 c-61 -137
-73 -418 -27 -592 149 -560 707 -894 1260 -754 366 93 675 389 802 768 80 241
84 501 11 718 -14 41 -24 64 -21 50z"/>
<path d="M1181 853 c-145 -251 -264 -463 -265 -472 -4 -54 354 -77 509 -33
105 30 245 100 323 163 35 28 62 52 60 55 -2 2 -35 -7 -74 -21 -38 -13 -98
-29 -134 -36 -78 -15 -76 -15 -60 -34 16 -19 18 -18 -54 -44 -89 -33 -188 -51
-278 -51 -93 0 -208 17 -208 32 0 5 110 199 244 431 134 232 248 432 255 445
11 21 10 22 -22 22 l-33 0 -263 -457z"/>
</g>
</svg>
